<svg width="500" height="500" viewBox="0 0 500 500" xmlns="http://www.w3.org/2000/svg">
  <defs>
    <linearGradient id="orangeGradient" x1="0%" y1="0%" x2="100%" y2="100%">
      <stop offset="0%" style="stop-color:#FF8C00;stop-opacity:1" />
      <stop offset="100%" style="stop-color:#FF6A00;stop-opacity:1" />
    </linearGradient>
  </defs>

  <!-- Hexagon frame -->
  <path d="M 250 50 L 400 125 L 400 275 L 250 450 L 100 275 L 100 125 Z"
        fill="none"
        stroke="url(#orangeGradient)"
        stroke-width="30"
        stroke-linejoin="round"/>

  <!-- Center node -->
  <circle cx="250" cy="250" r="35" fill="url(#orangeGradient)"/>

  <!-- Top node -->
  <circle cx="250" cy="140" r="25" fill="url(#orangeGradient)"/>
  <line x1="250" y1="165" x2="250" y2="215" stroke="url(#orangeGradient)" stroke-width="8"/>

  <!-- Bottom node -->
  <circle cx="250" cy="360" r="25" fill="url(#orangeGradient)"/>
  <line x1="250" y1="285" x2="250" y2="335" stroke="url(#orangeGradient)" stroke-width="8"/>

  <!-- Left node -->
  <circle cx="160" cy="200" r="25" fill="url(#orangeGradient)"/>
  <line x1="185" y1="210" x2="220" y2="235" stroke="url(#orangeGradient)" stroke-width="8"/>

  <!-- Right node -->
  <circle cx="340" cy="200" r="25" fill="url(#orangeGradient)"/>
  <line x1="315" y1="210" x2="280" y2="235" stroke="url(#orangeGradient)" stroke-width="8"/>

  <!-- Bottom-left node -->
  <circle cx="160" cy="310" r="25" fill="url(#orangeGradient)"/>
  <line x1="185" y1="300" x2="220" y2="265" stroke="url(#orangeGradient)" stroke-width="8"/>

  <!-- Bottom-right node -->
  <circle cx="340" cy="310" r="25" fill="url(#orangeGradient)"/>
  <line x1="315" y1="300" x2="280" y2="265" stroke="url(#orangeGradient)" stroke-width="8"/>
</svg>
